<svg width="40" height="40" viewBox="0 0 40 40" fill="none" xmlns="http://www.w3.org/2000/svg">
<g id="heart rate icon">
<path id="Vector" fill-rule="evenodd" clip-rule="evenodd" d="M18.0667 31.4151L20 33.3333L21.9333 31.4296L21.986 31.3775C26.1271 27.276 29.4145 24.0199 31.3633 20.8725H25.3333C24.8267 20.8725 24.3733 20.5792 24.1467 20.1043L22.6667 17.0181L18.52 25.6905C18.2933 26.1653 17.84 26.4585 17.3333 26.4585C16.8267 26.4585 16.3733 26.1653 16.1333 25.6905L13.84 20.8725H8.6373C10.5917 24.0273 13.8923 27.2894 18.0498 31.3984L18.0667 31.4151ZM7.26811 18.0794C6.87434 16.9643 6.66666 15.8351 6.66666 14.6594C6.66666 10.1835 9.89333 6.66666 14 6.66666C16.32 6.66666 18.5467 7.84378 20 9.70391C21.4533 7.84378 23.68 6.66666 26 6.66666C30.1067 6.66666 33.3333 10.1835 33.3333 14.6594C33.3333 15.8351 33.1257 16.9641 32.7319 18.0794H26.16L23.8533 13.2614C23.4 12.3118 21.92 12.3118 21.4667 13.2614L17.3333 21.9338L15.8533 18.8475C15.6267 18.3727 15.1733 18.0794 14.6667 18.0794H7.26811Z" fill="#005B4E"/>
</g>
</svg>
